v -0.000000 0.000000 -0.750000
v -0.000000 -0.176777 -0.823223
v -0.000000 -0.250000 -1.000000
v -0.000000 -0.176777 -1.176777
v -0.000000 -0.000000 -1.250000
v -0.000000 0.176777 -1.176777
v -0.000000 0.250000 -1.000000
v -0.000000 0.176777 -0.823223
v -0.000000 0.000000 -0.750000
v -0.375000 0.000000 -0.649519
v -0.411612 -0.176777 -0.712932
v -0.500000 -0.250000 -0.866025
v -0.588388 -0.176777 -1.019118
v -0.625000 -0.000000 -1.082532
v -0.588388 0.176777 -1.019118
v -0.500000 0.250000 -0.866025
v -0.411612 0.176777 -0.712932
v -0.375000 0.000000 -0.649519
v -0.649519 0.000000 -0.375000
v -0.712932 -0.176777 -0.411612
v -0.866025 -0.250000 -0.500000
v -1.019119 -0.176777 -0.588388
v -1.082532 -0.000000 -0.625000
v -1.019119 0.176777 -0.588388
v -0.866025 0.250000 -0.500000
v -0.712932 0.176777 -0.411612
v -0.649519 0.000000 -0.375000
v -0.750000 0.000000 0.000000
v -0.823223 -0.176777 0.000000
v -1.000000 -0.250000 0.000000
v -1.176777 -0.176777 0.000000
v -1.250000 -0.000000 0.000000
v -1.176777 0.176777 0.000000
v -1.000000 0.250000 0.000000
v -0.823223 0.176777 0.000000
v -0.750000 0.000000 0.000000
v -0.649519 0.000000 0.375000
v -0.712932 -0.176777 0.411612
v -0.866025 -0.250000 0.500000
v -1.019119 -0.176777 0.588388
v -1.082532 -0.000000 0.625000
v -1.019119 0.176777 0.588388
v -0.866025 0.250000 0.500000
v -0.712932 0.176777 0.411612
v -0.649519 0.000000 0.375000
v -0.375000 0.000000 0.649519
v -0.411612 -0.176777 0.712932
v -0.500000 -0.250000 0.866025
v -0.588389 -0.176777 1.019118
v -0.625000 -0.000000 1.082532
v -0.588389 0.176777 1.019118
v -0.500000 0.250000 0.866025
v -0.411612 0.176777 0.712932
v -0.375000 0.000000 0.649519
v 0.000000 0.000000 0.750000
v 0.000000 -0.176777 0.823223
v 0.000000 -0.250000 1.000000
v 0.000000 -0.176777 1.176777
v 0.000000 -0.000000 1.250000
v 0.000000 0.176777 1.176777
v 0.000000 0.250000 1.000000
v 0.000000 0.176777 0.823223
v 0.000000 0.000000 0.750000
v 0.375000 0.000000 0.649519
v 0.411612 -0.176777 0.712932
v 0.500000 -0.250000 0.866025
v 0.588388 -0.176777 1.019118
v 0.625000 -0.000000 1.082532
v 0.588388 0.176777 1.019118
v 0.500000 0.250000 0.866025
v 0.411612 0.176777 0.712932
v 0.375000 0.000000 0.649519
v 0.649519 0.000000 0.375000
v 0.712932 -0.176777 0.411612
v 0.866025 -0.250000 0.500000
v 1.019118 -0.176777 0.588388
v 1.082532 -0.000000 0.625000
v 1.019118 0.176777 0.588388
v 0.866025 0.250000 0.500000
v 0.712932 0.176777 0.411612
v 0.649519 0.000000 0.375000
v 0.750000 0.000000 0.000000
v 0.823223 -0.176777 0.000000
v 1.000000 -0.250000 0.000000
v 1.176777 -0.176777 0.000000
v 1.250000 -0.000000 0.000000
v 1.176777 0.176777 0.000000
v 1.000000 0.250000 0.000000
v 0.823223 0.176777 0.000000
v 0.750000 0.000000 0.000000
v 0.649519 0.000000 -0.375000
v 0.712932 -0.176777 -0.411612
v 0.866025 -0.250000 -0.500000
v 1.019118 -0.176777 -0.588389
v 1.082532 -0.000000 -0.625000
v 1.019118 0.176777 -0.588389
v 0.866025 0.250000 -0.500000
v 0.712932 0.176777 -0.411612
v 0.649519 0.000000 -0.375000
v 0.375000 0.000000 -0.649519
v 0.411612 -0.176777 -0.712932
v 0.500000 -0.250000 -0.866025
v 0.588388 -0.176777 -1.019119
v 0.625000 -0.000000 -1.082532
v 0.588388 0.176777 -1.019119
v 0.500000 0.250000 -0.866025
v 0.411612 0.176777 -0.712932
v 0.375000 0.000000 -0.649519
v -0.000000 0.000000 -0.750000
v -0.000000 -0.176777 -0.823223
v -0.000000 -0.250000 -1.000000
v -0.000000 -0.176777 -1.176777
v -0.000000 -0.000000 -1.250000
v -0.000000 0.176777 -1.176777
v -0.000000 0.250000 -1.000000
v -0.000000 0.176777 -0.823223
v -0.000000 0.000000 -0.750000
vn 0.000000 0.000000 1.000000
vn 0.000000 -0.707107 0.707107
vn 0.000000 -1.000000 0.000000
vn -0.000000 -0.707107 -0.707107
vn -0.000000 -0.000000 -1.000000
vn -0.000000 0.707107 -0.707107
vn -0.000000 1.000000 -0.000000
vn 0.000000 0.707107 0.707107
vn 0.000000 0.000000 1.000000
vn 0.500000 0.000000 0.866025
vn 0.353553 -0.707107 0.612372
vn 0.000000 -1.000000 0.000000
vn -0.353553 -0.707107 -0.612372
vn -0.500000 -0.000000 -0.866025
vn -0.353553 0.707107 -0.612372
vn -0.000000 1.000000 -0.000000
vn 0.353553 0.707107 0.612372
vn 0.500000 0.000000 0.866025
vn 0.866025 0.000000 0.500000
vn 0.612372 -0.707107 0.353553
vn 0.000000 -1.000000 0.000000
vn -0.612372 -0.707107 -0.353553
vn -0.866025 -0.000000 -0.500000
vn -0.612372 0.707107 -0.353553
vn -0.000000 1.000000 -0.000000
vn 0.612372 0.707107 0.353553
vn 0.866025 0.000000 0.500000
vn 1.000000 0.000000 -0.000000
vn 0.707107 -0.707107 -0.000000
vn 0.000000 -1.000000 -0.000000
vn -0.707107 -0.707107 0.000000
vn -1.000000 -0.000000 0.000000
vn -0.707107 0.707107 0.000000
vn -0.000000 1.000000 0.000000
vn 0.707107 0.707107 -0.000000
vn 1.000000 0.000000 -0.000000
vn 0.866025 0.000000 -0.500000
vn 0.612372 -0.707107 -0.353553
vn 0.000000 -1.000000 -0.000000
vn -0.612372 -0.707107 0.353553
vn -0.866025 -0.000000 0.500000
vn -0.612372 0.707107 0.353553
vn -0.000000 1.000000 0.000000
vn 0.612372 0.707107 -0.353553
vn 0.866025 0.000000 -0.500000
vn 0.500000 0.000000 -0.866025
vn 0.353554 -0.707107 -0.612372
vn 0.000000 -1.000000 -0.000000
vn -0.353554 -0.707107 0.612372
vn -0.500000 -0.000000 0.866025
vn -0.353554 0.707107 0.612372
vn -0.000000 1.000000 0.000000
vn 0.353554 0.707107 -0.612372
vn 0.500000 0.000000 -0.866025
vn -0.000000 0.000000 -1.000000
vn -0.000000 -0.707107 -0.707107
vn -0.000000 -1.000000 -0.000000
vn 0.000000 -0.707107 0.707107
vn 0.000000 -0.000000 1.000000
vn 0.000000 0.707107 0.707107
vn 0.000000 1.000000 0.000000
vn -0.000000 0.707107 -0.707107
vn -0.000000 0.000000 -1.000000
vn -0.500000 0.000000 -0.866025
vn -0.353553 -0.707107 -0.612372
vn -0.000000 -1.000000 -0.000000
vn 0.353553 -0.707107 0.612372
vn 0.500000 -0.000000 0.866025
vn 0.353553 0.707107 0.612372
vn 0.000000 1.000000 0.000000
vn -0.353553 0.707107 -0.612372
vn -0.500000 0.000000 -0.866025
vn -0.866025 0.000000 -0.500000
vn -0.612372 -0.707107 -0.353553
vn -0.000000 -1.000000 -0.000000
vn 0.612372 -0.707107 0.353553
vn 0.866025 -0.000000 0.500000
vn 0.612372 0.707107 0.353553
vn 0.000000 1.000000 0.000000
vn -0.612372 0.707107 -0.353553
vn -0.866025 0.000000 -0.500000
vn -1.000000 0.000000 -0.000000
vn -0.707107 -0.707107 -0.000000
vn -0.000000 -1.000000 -0.000000
vn 0.707107 -0.707107 0.000000
vn 1.000000 -0.000000 0.000000
vn 0.707107 0.707107 0.000000
vn 0.000000 1.000000 0.000000
vn -0.707107 0.707107 -0.000000
vn -1.000000 0.000000 -0.000000
vn -0.866025 0.000000 0.500000
vn -0.612372 -0.707107 0.353554
vn -0.000000 -1.000000 0.000000
vn 0.612372 -0.707107 -0.353554
vn 0.866025 -0.000000 -0.500000
vn 0.612372 0.707107 -0.353554
vn 0.000000 1.000000 -0.000000
vn -0.612372 0.707107 0.353554
vn -0.866025 0.000000 0.500000
vn -0.500000 0.000000 0.866025
vn -0.353553 -0.707107 0.612372
vn -0.000000 -1.000000 0.000000
vn 0.353553 -0.707107 -0.612372
vn 0.500000 -0.000000 -0.866025
vn 0.353553 0.707107 -0.612372
vn 0.000000 1.000000 -0.000000
vn -0.353553 0.707107 0.612372
vn -0.500000 0.000000 0.866025
vn 0.000000 0.000000 1.000000
vn 0.000000 -0.707107 0.707107
vn 0.000000 -1.000000 0.000000
vn -0.000000 -0.707107 -0.707107
vn -0.000000 -0.000000 -1.000000
vn -0.000000 0.707107 -0.707107
vn -0.000000 1.000000 -0.000000
vn 0.000000 0.707107 0.707107
vn 0.000000 0.000000 1.000000
vt 0.000000 0.000000
vt 0.000000 0.125000
vt 0.000000 0.250000
vt 0.000000 0.375000
vt 0.000000 0.500000
vt 0.000000 0.625000
vt 0.000000 0.750000
vt 0.000000 0.875000
vt 0.000000 1.000000
vt 0.083333 0.000000
vt 0.083333 0.125000
vt 0.083333 0.250000
vt 0.083333 0.375000
vt 0.083333 0.500000
vt 0.083333 0.625000
vt 0.083333 0.750000
vt 0.083333 0.875000
vt 0.083333 1.000000
vt 0.166667 0.000000
vt 0.166667 0.125000
vt 0.166667 0.250000
vt 0.166667 0.375000
vt 0.166667 0.500000
vt 0.166667 0.625000
vt 0.166667 0.750000
vt 0.166667 0.875000
vt 0.166667 1.000000
vt 0.250000 0.000000
vt 0.250000 0.125000
vt 0.250000 0.250000
vt 0.250000 0.375000
vt 0.250000 0.500000
vt 0.250000 0.625000
vt 0.250000 0.750000
vt 0.250000 0.875000
vt 0.250000 1.000000
vt 0.333333 0.000000
vt 0.333333 0.125000
vt 0.333333 0.250000
vt 0.333333 0.375000
vt 0.333333 0.500000
vt 0.333333 0.625000
vt 0.333333 0.750000
vt 0.333333 0.875000
vt 0.333333 1.000000
vt 0.416667 0.000000
vt 0.416667 0.125000
vt 0.416667 0.250000
vt 0.416667 0.375000
vt 0.416667 0.500000
vt 0.416667 0.625000
vt 0.416667 0.750000
vt 0.416667 0.875000
vt 0.416667 1.000000
vt 0.500000 0.000000
vt 0.500000 0.125000
vt 0.500000 0.250000
vt 0.500000 0.375000
vt 0.500000 0.500000
vt 0.500000 0.625000
vt 0.500000 0.750000
vt 0.500000 0.875000
vt 0.500000 1.000000
vt 0.583333 0.000000
vt 0.583333 0.125000
vt 0.583333 0.250000
vt 0.583333 0.375000
vt 0.583333 0.500000
vt 0.583333 0.625000
vt 0.583333 0.750000
vt 0.583333 0.875000
vt 0.583333 1.000000
vt 0.666667 0.000000
vt 0.666667 0.125000
vt 0.666667 0.250000
vt 0.666667 0.375000
vt 0.666667 0.500000
vt 0.666667 0.625000
vt 0.666667 0.750000
vt 0.666667 0.875000
vt 0.666667 1.000000
vt 0.750000 0.000000
vt 0.750000 0.125000
vt 0.750000 0.250000
vt 0.750000 0.375000
vt 0.750000 0.500000
vt 0.750000 0.625000
vt 0.750000 0.750000
vt 0.750000 0.875000
vt 0.750000 1.000000
vt 0.833333 0.000000
vt 0.833333 0.125000
vt 0.833333 0.250000
vt 0.833333 0.375000
vt 0.833333 0.500000
vt 0.833333 0.625000
vt 0.833333 0.750000
vt 0.833333 0.875000
vt 0.833333 1.000000
vt 0.916667 0.000000
vt 0.916667 0.125000
vt 0.916667 0.250000
vt 0.916667 0.375000
vt 0.916667 0.500000
vt 0.916667 0.625000
vt 0.916667 0.750000
vt 0.916667 0.875000
vt 0.916667 1.000000
vt 1.000000 0.000000
vt 1.000000 0.125000
vt 1.000000 0.250000
vt 1.000000 0.375000
vt 1.000000 0.500000
vt 1.000000 0.625000
vt 1.000000 0.750000
vt 1.000000 0.875000
vt 1.000000 1.000000
f 1/1/1 10/10/10 2/2/2
f 2/2/2 10/10/10 11/11/11
f 2/2/2 11/11/11 3/3/3
f 3/3/3 11/11/11 12/12/12
f 3/3/3 12/12/12 4/4/4
f 4/4/4 12/12/12 13/13/13
f 4/4/4 13/13/13 5/5/5
f 5/5/5 13/13/13 14/14/14
f 5/5/5 14/14/14 6/6/6
f 6/6/6 14/14/14 15/15/15
f 6/6/6 15/15/15 7/7/7
f 7/7/7 15/15/15 16/16/16
f 7/7/7 16/16/16 8/8/8
f 8/8/8 16/16/16 17/17/17
f 8/8/8 17/17/17 9/9/9
f 9/9/9 17/17/17 18/18/18
f 10/10/10 19/19/19 11/11/11
f 11/11/11 19/19/19 20/20/20
f 11/11/11 20/20/20 12/12/12
f 12/12/12 20/20/20 21/21/21
f 12/12/12 21/21/21 13/13/13
f 13/13/13 21/21/21 22/22/22
f 13/13/13 22/22/22 14/14/14
f 14/14/14 22/22/22 23/23/23
f 14/14/14 23/23/23 15/15/15
f 15/15/15 23/23/23 24/24/24
f 15/15/15 24/24/24 16/16/16
f 16/16/16 24/24/24 25/25/25
f 16/16/16 25/25/25 17/17/17
f 17/17/17 25/25/25 26/26/26
f 17/17/17 26/26/26 18/18/18
f 18/18/18 26/26/26 27/27/27
f 19/19/19 28/28/28 20/20/20
f 20/20/20 28/28/28 29/29/29
f 20/20/20 29/29/29 21/21/21
f 21/21/21 29/29/29 30/30/30
f 21/21/21 30/30/30 22/22/22
f 22/22/22 30/30/30 31/31/31
f 22/22/22 31/31/31 23/23/23
f 23/23/23 31/31/31 32/32/32
f 23/23/23 32/32/32 24/24/24
f 24/24/24 32/32/32 33/33/33
f 24/24/24 33/33/33 25/25/25
f 25/25/25 33/33/33 34/34/34
f 25/25/25 34/34/34 26/26/26
f 26/26/26 34/34/34 35/35/35
f 26/26/26 35/35/35 27/27/27
f 27/27/27 35/35/35 36/36/36
f 28/28/28 37/37/37 29/29/29
f 29/29/29 37/37/37 38/38/38
f 29/29/29 38/38/38 30/30/30
f 30/30/30 38/38/38 39/39/39
f 30/30/30 39/39/39 31/31/31
f 31/31/31 39/39/39 40/40/40
f 31/31/31 40/40/40 32/32/32
f 32/32/32 40/40/40 41/41/41
f 32/32/32 41/41/41 33/33/33
f 33/33/33 41/41/41 42/42/42
f 33/33/33 42/42/42 34/34/34
f 34/34/34 42/42/42 43/43/43
f 34/34/34 43/43/43 35/35/35
f 35/35/35 43/43/43 44/44/44
f 35/35/35 44/44/44 36/36/36
f 36/36/36 44/44/44 45/45/45
f 37/37/37 46/46/46 38/38/38
f 38/38/38 46/46/46 47/47/47
f 38/38/38 47/47/47 39/39/39
f 39/39/39 47/47/47 48/48/48
f 39/39/39 48/48/48 40/40/40
f 40/40/40 48/48/48 49/49/49
f 40/40/40 49/49/49 41/41/41
f 41/41/41 49/49/49 50/50/50
f 41/41/41 50/50/50 42/42/42
f 42/42/42 50/50/50 51/51/51
f 42/42/42 51/51/51 43/43/43
f 43/43/43 51/51/51 52/52/52
f 43/43/43 52/52/52 44/44/44
f 44/44/44 52/52/52 53/53/53
f 44/44/44 53/53/53 45/45/45
f 45/45/45 53/53/53 54/54/54
f 46/46/46 55/55/55 47/47/47
f 47/47/47 55/55/55 56/56/56
f 47/47/47 56/56/56 48/48/48
f 48/48/48 56/56/56 57/57/57
f 48/48/48 57/57/57 49/49/49
f 49/49/49 57/57/57 58/58/58
f 49/49/49 58/58/58 50/50/50
f 50/50/50 58/58/58 59/59/59
f 50/50/50 59/59/59 51/51/51
f 51/51/51 59/59/59 60/60/60
f 51/51/51 60/60/60 52/52/52
f 52/52/52 60/60/60 61/61/61
f 52/52/52 61/61/61 53/53/53
f 53/53/53 61/61/61 62/62/62
f 53/53/53 62/62/62 54/54/54
f 54/54/54 62/62/62 63/63/63
f 55/55/55 64/64/64 56/56/56
f 56/56/56 64/64/64 65/65/65
f 56/56/56 65/65/65 57/57/57
f 57/57/57 65/65/65 66/66/66
f 57/57/57 66/66/66 58/58/58
f 58/58/58 66/66/66 67/67/67
f 58/58/58 67/67/67 59/59/59
f 59/59/59 67/67/67 68/68/68
f 59/59/59 68/68/68 60/60/60
f 60/60/60 68/68/68 69/69/69
f 60/60/60 69/69/69 61/61/61
f 61/61/61 69/69/69 70/70/70
f 61/61/61 70/70/70 62/62/62
f 62/62/62 70/70/70 71/71/71
f 62/62/62 71/71/71 63/63/63
f 63/63/63 71/71/71 72/72/72
f 64/64/64 73/73/73 65/65/65
f 65/65/65 73/73/73 74/74/74
f 65/65/65 74/74/74 66/66/66
f 66/66/66 74/74/74 75/75/75
f 66/66/66 75/75/75 67/67/67
f 67/67/67 75/75/75 76/76/76
f 67/67/67 76/76/76 68/68/68
f 68/68/68 76/76/76 77/77/77
f 68/68/68 77/77/77 69/69/69
f 69/69/69 77/77/77 78/78/78
f 69/69/69 78/78/78 70/70/70
f 70/70/70 78/78/78 79/79/79
f 70/70/70 79/79/79 71/71/71
f 71/71/71 79/79/79 80/80/80
f 71/71/71 80/80/80 72/72/72
f 72/72/72 80/80/80 81/81/81
f 73/73/73 82/82/82 74/74/74
f 74/74/74 82/82/82 83/83/83
f 74/74/74 83/83/83 75/75/75
f 75/75/75 83/83/83 84/84/84
f 75/75/75 84/84/84 76/76/76
f 76/76/76 84/84/84 85/85/85
f 76/76/76 85/85/85 77/77/77
f 77/77/77 85/85/85 86/86/86
f 77/77/77 86/86/86 78/78/78
f 78/78/78 86/86/86 87/87/87
f 78/78/78 87/87/87 79/79/79
f 79/79/79 87/87/87 88/88/88
f 79/79/79 88/88/88 80/80/80
f 80/80/80 88/88/88 89/89/89
f 80/80/80 89/89/89 81/81/81
f 81/81/81 89/89/89 90/90/90
f 82/82/82 91/91/91 83/83/83
f 83/83/83 91/91/91 92/92/92
f 83/83/83 92/92/92 84/84/84
f 84/84/84 92/92/92 93/93/93
f 84/84/84 93/93/93 85/85/85
f 85/85/85 93/93/93 94/94/94
f 85/85/85 94/94/94 86/86/86
f 86/86/86 94/94/94 95/95/95
f 86/86/86 95/95/95 87/87/87
f 87/87/87 95/95/95 96/96/96
f 87/87/87 96/96/96 88/88/88
f 88/88/88 96/96/96 97/97/97
f 88/88/88 97/97/97 89/89/89
f 89/89/89 97/97/97 98/98/98
f 89/89/89 98/98/98 90/90/90
f 90/90/90 98/98/98 99/99/99
f 91/91/91 100/100/100 92/92/92
f 92/92/92 100/100/100 101/101/101
f 92/92/92 101/101/101 93/93/93
f 93/93/93 101/101/101 102/102/102
f 93/93/93 102/102/102 94/94/94
f 94/94/94 102/102/102 103/103/103
f 94/94/94 103/103/103 95/95/95
f 95/95/95 103/103/103 104/104/104
f 95/95/95 104/104/104 96/96/96
f 96/96/96 104/104/104 105/105/105
f 96/96/96 105/105/105 97/97/97
f 97/97/97 105/105/105 106/106/106
f 97/97/97 106/106/106 98/98/98
f 98/98/98 106/106/106 107/107/107
f 98/98/98 107/107/107 99/99/99
f 99/99/99 107/107/107 108/108/108
f 100/100/100 109/109/109 101/101/101
f 101/101/101 109/109/109 110/110/110
f 101/101/101 110/110/110 102/102/102
f 102/102/102 110/110/110 111/111/111
f 102/102/102 111/111/111 103/103/103
f 103/103/103 111/111/111 112/112/112
f 103/103/103 112/112/112 104/104/104
f 104/104/104 112/112/112 113/113/113
f 104/104/104 113/113/113 105/105/105
f 105/105/105 113/113/113 114/114/114
f 105/105/105 114/114/114 106/106/106
f 106/106/106 114/114/114 115/115/115
f 106/106/106 115/115/115 107/107/107
f 107/107/107 115/115/115 116/116/116
f 107/107/107 116/116/116 108/108/108
f 108/108/108 116/116/116 117/117/117
